<svg xmlns="http://www.w3.org/2000/svg" version="1.1" xmlns:xlink="http://www.w3.org/1999/xlink" xmlns:svgjs="http://svgjs.dev/svgjs" width="2000" height="1401" viewBox="0 0 2000 1401"><g transform="matrix(1,0,0,1,-0.3272195684670578,-2.2586342280900453)"><svg viewBox="0 0 354 248" data-background-color="#ffffff" preserveAspectRatio="xMidYMid meet" height="1401" width="2000" xmlns="http://www.w3.org/2000/svg" xmlns:xlink="http://www.w3.org/1999/xlink"><g id="tight-bounds" transform="matrix(1,0,0,1,0.05801303877552755,0.40002634420794436)"><svg viewBox="0 0 353.8840690976059 247.19999999999996" height="247.19999999999996" width="353.8840690976059"><g><svg viewBox="0 0 353.8840690976059 247.19999999999996" height="247.19999999999996" width="353.8840690976059"><g><svg viewBox="0 0 353.8840690976059 247.19999999999996" height="247.19999999999996" width="353.8840690976059"><g id="textblocktransform"><svg viewBox="0 0 353.8840690976059 247.19999999999996" height="247.19999999999996" width="353.8840690976059" id="textblock"><g><svg viewBox="0 0 353.8840690976059 247.19999999999996" height="247.19999999999996" width="353.8840690976059"><path d="M353.056 53.02C351.392 27.36 346.65 20.227 346.65 20.227 332.093-6.202 313.926-0.506 297.605 3.292 268.79 3.446 240.091 9.091 211.343 12.119 151.001 12.581 90.143 4.986 30.101 23.717 24.461 29.464-5.851 24.846 1.003 56.304 2.8 69.39 9.355 83.913 9.155 95.922 10.054 98.026 11.301 93.202 11.834 96.23 13.697 104.39 16.742 100.541 19.237 105.365 15.76 118.246 18.256 128.971 20.635 140.21 16.442 143.135 11.068 141.749 8.656 151.449 8.407 158.479 7.059 157.145 5.578 156.837 4.497 156.632 2.318 157.402 2.684 159.608 3.931 167.152-1.426 171.514 1.935 178.904-0.378 186.91 3.532 193.838 3 202.511 2.933 204.255 3.299 205.744 3.881 206.154 6.46 208.361 2.7 212.672 3.099 217.342 29.552 249.262 58.251 227.195 85.352 241.872 92.389 231.608 87.099 245.516 89.911 243.36 92.107 240.846 93.704 251.263 96.183 245.362 96.565 243.668 95.983 239.665 97.347 240.435 98.063 240.846 98.695 240.743 98.795 238.382 98.944 234.841 97.63 237.048 97.281 235.201 101.057 225.861 100.126 248.081 103.669 247.158 103.503 244.438 102.471 240.538 104.584 241.051 106.68 237.151 106.747 233.918 108.61 242.693 108.677 244.592 109.01 245.926 109.542 246.85 115.365 237.305 121.155 250.237 127.26 245.926 131.004 241.205 134.597 248.492 138.39 246.696 139.721 245.259 141.069 242.693 142.35 247.004 158.038 247.928 174.758 244.079 189.632 247.158 229.377 241.41 271.851 249.518 313.759 241.923 323.642 238.998 333.907 234.841 343.539 231.506 343.539 231.506 351.342 222.371 351.342 181.316S353.006 145.393 353.255 112.703C353.505 80.013 354.669 78.679 353.006 53.02Z" opacity="1" fill="#8d021f" data-fill-palette-color="tertiary"></path><g transform="matrix(1,0,0,1,55.76832000000002,26.230666666666668)"><svg width="242.34742909760587" viewBox="1.5 -24.05 45.05 36.19999999999999" height="194.73866666666663" data-palette-color="#ffffff"><path d="M3.9 3.45L3.75 2.45Q4.2 1.2 4.63 0.13 5.05-0.95 5.25-0.95L5.25-0.95Q5.35-0.95 5.4-1L5.4-1Q5.3-1 5.2-1.1L5.2-1.1Q5.2-1.25 5.33-1.33 5.45-1.4 5.45-1.6L5.45-1.6 5.45-1.7 5.3-1.6Q5.3-1.85 5.43-1.85 5.55-1.85 5.55-2L5.55-2 5.45-2Q5.45-2.25 5.63-2.4 5.8-2.55 5.85-2.85L5.85-2.85 5.9-3.15 6.65-5.85 6.6-5.9Q6.55-5.9 6.5-5.93 6.45-5.95 6.4-5.95L6.4-5.95 5.65-5.95Q5.5-6 5.15-6.13 4.8-6.25 4.45-6.4 4.1-6.55 3.85-6.75 3.6-6.95 3.6-7.1L3.6-7.1Q3.6-7.35 3.73-7.35 3.85-7.35 4.1-7.45L4.1-7.45Q3.6-7.65 3.6-8.25L3.6-8.25 3.9-8.25Q3.95-8.25 4.2-8.28 4.45-8.3 4.7-8.3 4.95-8.3 5.18-8.33 5.4-8.35 5.45-8.35L5.45-8.35 6.15-8.35Q6.2-8.35 6.48-8.35 6.75-8.35 7.1-8.38 7.45-8.4 7.73-8.5 8-8.6 8-8.8L8-8.8 8-8.9 8.5-10.25 9-10.95 9.1-11.85 9.35-11.8 9.45-12.7 10.5-14 10.05-14.35 10.55-15.35Q10.6-15.35 10.8-15.85 11-16.35 11.28-17.05 11.55-17.75 11.83-18.53 12.1-19.3 12.25-19.85L12.25-19.85 12.5-20.4Q12.45-20.45 12.45-20.45L12.45-20.45Q12.45-20.55 12.53-20.75 12.6-20.95 12.85-21.35L12.85-21.35Q12.9-21.45 12.98-21.73 13.05-22 13.15-22.33 13.25-22.65 13.38-22.93 13.5-23.2 13.7-23.3L13.7-23.3 13.95-23.15Q13.9-23.15 14.1-23.18 14.3-23.2 14.5-23.3L14.5-23.3Q15-22.85 15.4-22.68 15.8-22.5 16.13-22.4 16.45-22.3 16.7-22.15 16.95-22 17.1-21.6L17.1-21.6Q17.1-21.5 17.28-21 17.45-20.5 17.45-20.3L17.45-20.3 17.45-20.25Q18.3-19.55 18.88-18.5 19.45-17.45 19.45-16.7L19.45-16.7 19.4-16.4 20.3-13.05 20.3-12.3Q20.6-12.3 20.6-12.15L20.6-12.15Q20.5-12.05 20.5-11.9L20.5-11.9 20.4-11.7 20.5-11.6 20.5-10.3 20.6-10.3Q20.6-10.2 20.55-10.1 20.5-10 20.5-9.9L20.5-9.9 20.7-9.7Q20.65-9.5 20.65-9.15L20.65-9.15Q20.65-8.8 20.7-8.53 20.75-8.25 20.85-7.95L20.85-7.95Q20.7-7.85 20.7-7.45L20.7-7.45Q20.7-7.3 20.75-7.28 20.8-7.25 20.8-7.15L20.8-7.15Q20.8-7 20.75-6.9L20.75-6.9 21-7 20.85-6.8 21-6.6 20.85-6.15Q20.85-5.95 21.03-5.8 21.2-5.65 21.2-5.4L21.2-5.4Q21.1-5.4 21.1-5.3L21.1-5.3 21.1-5.25Q21.1-5.1 21.15-5.08 21.2-5.05 21.2-4.95L21.2-4.95 21.1-4.75Q21.1-4.2 21.15-4.1 21.2-4 21.45-3.6L21.45-3.6 21.45-3.4 21.45-2.15Q21.55-2.05 21.63-2.02 21.7-2 21.7-1.9L21.7-1.9Q21.7-1.85 21.65-1.8L21.65-1.8 21.75-1.65Q21.75-1.4 21.83-1.18 21.9-0.95 21.9-0.85L21.9-0.85Q21.9-0.5 21.68-0.38 21.45-0.25 21.45 0.05L21.45 0.05Q21.4 0.05 21.38-0.1 21.35-0.25 21.15-0.25L21.15-0.25Q21.15 0 21.13 0.03 21.1 0.05 20.9 0.05L20.9 0.05 20.65 0.05Q20.55 0.05 20.48-0.15 20.4-0.35 20.3-0.35L20.3-0.35 19.45-0.35Q19.25-0.35 19.25-0.43 19.25-0.5 19.15-0.5L19.15-0.5Q18.95-0.5 18.85-0.38 18.75-0.25 18.5-0.25L18.5-0.25Q17.6-0.45 17.6-1.4L17.6-1.4Q17.6-1.5 17.68-1.58 17.75-1.65 17.75-1.7L17.75-1.7Q17.75-2.35 17.6-2.83 17.45-3.3 17.45-3.9L17.45-3.9Q17.6-3.9 17.65-3.83 17.7-3.75 17.8-3.65L17.8-3.65Q17.7-3.65 17.7-3.4L17.7-3.4Q17.7-3.2 18.05-3.1L18.05-3.1Q18.05-3.2 18.03-3.2 18-3.2 18-3.25L18-3.25Q18-3.3 18.03-3.33 18.05-3.35 18.05-3.4L18.05-3.4Q18-3.55 18-3.78 18-4 17.95-4.25L17.95-4.25 17.85-4.85 17.75-5 17.7-4.55 17.6-4.8 17.4-4.15Q17.4-4.3 17.38-4.58 17.35-4.85 17.35-5.15L17.35-5.15 17.35-5.95Q17.3-6.05 17.03-6.13 16.75-6.2 16.43-6.23 16.1-6.25 15.8-6.25 15.5-6.25 15.35-6.25L15.35-6.25Q15.1-6.25 14.95-6.2 14.8-6.15 14.55-6.15L14.55-6.15Q14.25-6.15 13.9-6.23 13.55-6.3 13.4-6.3L13.4-6.3 12.9-6.3Q12.6-6.3 12.48-6.05 12.35-5.8 12.3-5.48 12.25-5.15 12.25-4.85 12.25-4.55 12.2-4.45L12.2-4.45 12-4.05 12.3-3.95 12.2-3.8 11.7-3.8Q11.7-3.45 11.45-2.95 11.2-2.45 11-2.15L11-2.15 10.9-2Q10.9-1.95 10.88-1.9 10.85-1.85 10.85-1.8L10.85-1.8 10.85-1.7Q10.85-1.55 11-1.4L11-1.4Q10.75-1.15 10.55-0.73 10.35-0.3 10.25 0.1L10.25 0.1 10.25 0.55Q10.05 1.1 9.75 1.73 9.45 2.35 9.45 2.8L9.45 2.8 9.75 2.8Q9.65 2.95 9.5 2.95 9.35 2.95 9.35 3.15L9.35 3.15 9.4 3.15Q9.5 3.15 9.5 3.35L9.5 3.35Q9.5 3.65 9.33 3.83 9.15 4 8.97 4.17 8.8 4.35 8.63 4.6 8.45 4.85 8.45 5.3L8.45 5.3 8.6 5.4Q8.6 5.55 8.3 6 8 6.45 7.9 6.7L7.9 6.7Q7.9 6.85 7.6 6.9L7.6 6.9Q7.6 7.05 7.7 7.05 7.8 7.05 7.9 7.1L7.9 7.1Q7.8 7.3 7.7 7.4 7.6 7.5 7.6 7.7L7.6 7.7 7.9 7.6Q7.9 7.8 7.83 7.85 7.75 7.9 7.75 8.05L7.75 8.05 7.75 8.1 7.2 9.45 7.35 9.45 7.15 10.95Q7 11.15 7 11.28 7 11.4 6.9 11.65L6.9 11.65 6.95 11.7Q6.95 11.8 6.73 11.85 6.5 11.9 6.25 12.15L6.25 12.15Q6.15 12.15 6.03 12 5.9 11.85 5.9 11.75L5.9 11.75Q5.9 11.7 5.95 11.65L5.95 11.65Q5.7 11.5 5.7 11.45 5.7 11.4 5.5 11.4L5.5 11.4 5.35 11.6Q5.25 11.9 5.25 11.85L5.25 11.85 4.15 11.7 5.1 11.4Q5 11.35 4.53 11.33 4.05 11.3 3.9 11.3L3.9 11.3Q3.8 11.4 3.8 11.45 3.8 11.5 3.65 11.5L3.65 11.5 3.65 11.15Q3.6 11.2 3.55 11.2L3.55 11.2Q3.45 11.2 3.2 11.13 2.95 11.05 2.75 11.05L2.75 11.05 2.75 10.8Q2.4 10.8 2.2 10.95L2.2 10.95Q1.95 10.7 1.78 10.33 1.6 9.95 1.5 9.85L1.5 9.85Q1.85 9.65 1.88 9.35 1.9 9.05 1.9 8.65L1.9 8.65 2.05 8.65 2.3 9.15Q2.4 8.5 2.63 7.75 2.85 7 2.85 6.45L2.85 6.45 2.85 5.9 3 5.3Q3.2 4.9 3.3 4.7 3.4 4.5 3.5 4.15L3.5 4.15 3.65 3.95 4.2 3.95 5 3.7 5 3.95 4.7 4.5 4.7 5.05 5.05 5.35Q5.05 5.1 5.33 4.78 5.6 4.45 5.6 4.25L5.6 4.25 5.6 3.45Q5.6 3.3 5.48 3.23 5.35 3.15 5.25 3.15L5.25 3.15 5 3.15 4.7 3.45 3.9 3.45ZM13.5-9L13.8-8.9 14.45-8.9Q14.65-8.9 15.08-8.9 15.5-8.9 15.93-8.97 16.35-9.05 16.65-9.2 16.95-9.35 16.95-9.6L16.95-9.6 16.75-9.6 16.75-10.3Q16.7-10.3 16.7-10.35L16.7-10.35 16.7-10.65 16.6-10.65Q16.6-10.75 16.65-10.8 16.7-10.85 16.7-10.95L16.7-10.95 16.7-11.05 16.45-11.1Q16.6-11.1 16.7-11.2L16.7-11.2 16.6-11.6 16.6-11.7Q16.6-11.8 16.65-11.83 16.7-11.85 16.7-12L16.7-12Q16.7-12.3 16.53-12.6 16.35-12.9 16.35-13.15L16.35-13.15 16.45-13.5 15.9-14.85 15.9-14.95Q15.9-15.05 15.8-15.25 15.7-15.45 15.7-15.5L15.7-15.5Q15.25-14.2 14.7-12.53 14.15-10.85 13.6-9.6L13.6-9.6 13.5-9ZM4.35 6.15L4.1 6.45Q4.1 6.55 4 6.95L4 6.95 3.9 7.25 3.9 8.65 4.2 8.4Q4.2 8.15 4.28 7.95 4.35 7.75 4.35 7.55L4.35 7.55 4.35 6.15ZM3.4 7.55L3.4 6.55Q3.3 6.8 3.2 7.05 3.1 7.3 3.1 7.55L3.1 7.55 3.1 8.3 3.4 7.55ZM18.1-1.45L18.1-1.45 18.1-1.3Q18.1-0.95 18.35-0.95L18.35-0.95Q18.35-1 18.38-1.13 18.4-1.25 18.4-1.35L18.4-1.35Q18.4-1.65 18.2-1.65L18.2-1.65Q18.1-1.65 18.1-1.45ZM5.25 5.6L5.25 5.6Q5.05 5.6 5.05 5.9L5.05 5.9Q5.05 6.15 5.25 6.15L5.25 6.15Q5.5 6.15 5.5 5.9L5.5 5.9Q5.5 5.6 5.25 5.6ZM4.7 5.35L4.7 5.35Q4.5 5.35 4.5 5.65L4.5 5.65Q4.5 5.9 4.7 5.9L4.7 5.9Q4.95 5.9 4.95 5.65L4.95 5.65Q4.95 5.35 4.7 5.35ZM5.1 11.05L5.1 11.05Q5.1 11 4.67 11 4.25 11 4.2 11L4.2 11Q4.15 11 4.15 11.05L4.15 11.05 4.2 11.15 4.55 11.15Q4.75 11.15 4.93 11.15 5.1 11.15 5.1 11.05ZM3.1 8.9L3.1 8.9Q3.1 8.65 2.95 8.65L2.95 8.65Q2.85 8.65 2.85 8.9L2.85 8.9Q2.85 9.1 2.95 9.1L2.95 9.1Q3.1 9.1 3.1 8.9ZM18.05-2.5L18.05-2.5 18.05-2.35 18.05-2.05 18.05-1.95 18.15-1.95Q18.15-2.05 18.18-2.1 18.2-2.15 18.2-2.25L18.2-2.25Q18.2-2.4 18.05-2.5ZM6.9 10.8L6.9 10.95 7 10.95 6.9 10.8ZM6.25 11.7L6.35 11.8 6.35 11.7 6.25 11.7ZM43.15-9.7L43.2-9.65Q43-8.65 42.75-7.7 42.5-6.75 42.5-5.8L42.5-5.8 42.4-5.55 42.4-3.45Q42.4-3.05 42.57-2.75 42.75-2.45 42.75-2.05L42.75-2.05Q42.75-1.7 42.67-1.75 42.6-1.8 42.5-1.6L42.5-1.6 42.3-1.2Q42.2-1.1 41.8-1.1L41.8-1.1 41.65-1.2 41.55-1Q41.5-0.7 41.12-0.73 40.75-0.75 40.55-0.5L40.55-0.5Q40.1-0.7 39.72-0.73 39.35-0.75 38.95-0.85L38.95-0.85 38.5-1.1Q38.15-1.1 37.77-1.35 37.4-1.6 37.05-1.95 36.7-2.3 36.42-2.73 36.15-3.15 36-3.55L36-3.55 32.35-8.5Q31.7-9.35 31.3-10.33 30.9-11.3 30.25-12.2L30.25-12.2 30.2-12.3 30.1-12.1Q30.1-11.65 30.02-11.15 29.95-10.65 29.95-10.25L29.95-10.25 30-9.9 30-9.75Q29.7-7.6 29.52-6.28 29.35-4.95 29.27-3.98 29.2-3 29.1-2.15 29-1.3 28.85-0.1L28.85-0.1Q28.85-0.05 28.75 0.2 28.65 0.45 28.5 0.75 28.35 1.05 28.2 1.28 28.05 1.5 28 1.5L28 1.5 27.65 1.15Q27.65 1.45 27.4 1.6L27.4 1.6 26.9 1.1 26.9 1Q26.6 1 26.5 1.13 26.4 1.25 26.3 1.25L26.3 1.25Q25.75 1.25 25.57 0.95 25.4 0.65 25.2 0.25L25.2 0.25 25.05 0Q25.05-0.1 25.15-0.2L25.15-0.2Q25.15-0.45 25.05-0.75 24.95-1.05 24.9-1.25L24.9-1.25 24.9-2.45Q24.9-3.45 24.9-4.48 24.9-5.5 24.95-6.5L24.95-6.5Q24.95-6.6 25-6.98 25.05-7.35 25.07-7.75 25.1-8.15 25.15-8.53 25.2-8.9 25.2-9L25.2-9 25.2-9.25Q25.2-9.35 25.17-9.4 25.15-9.45 25.15-9.6L25.15-9.6 25.2-10.85 25.15-11Q25.15-11.55 25.5-12.2 25.85-12.85 25.85-13.65L25.85-13.65Q25.85-13.95 25.8-14.15L25.8-14.15Q25.95-14.15 25.95-14.65L25.95-14.65 25.95-15.15 25.95-15.4Q25.85-15.4 25.85-15.5L25.85-15.5Q25.85-16.4 26.05-17.18 26.25-17.95 26.25-18.85L26.25-18.85 26.25-19 26.05-18.9Q26.15-19 26.15-19.25L26.15-19.25Q26.15-19.35 26.07-19.48 26-19.6 26-19.85L26-19.85Q26-20 26.15-20L26.15-20 27-20Q27.4-20 27.85-19.95 28.3-19.9 28.75-19.9L28.75-19.9Q28.85-19.9 28.9-19.95 28.95-20 29.15-20L29.15-20 29.35-20Q29.4-20 29.57-19.8 29.75-19.6 29.85-19.6L29.85-19.6 30.1-19.5Q30.45-19.35 31.07-18.4 31.7-17.45 32.32-16.32 32.95-15.2 33.42-14.25 33.9-13.3 33.95-13.2L33.95-13.2Q34.5-12.2 35.12-11.15 35.75-10.1 36.15-9L36.15-9Q36.55-8.55 37.02-7.93 37.5-7.3 37.85-6.75L37.85-6.75 37.9-6.5 38-6.5Q38.1-6.5 38.1-6.58 38.1-6.65 38.15-6.75L38.15-6.75 38.15-7.4Q38.15-7.9 38.3-8.33 38.45-8.75 38.45-9.1L38.45-9.1Q38.45-9.2 38.35-9.4L38.35-9.4 38.15-9.35 38.15-9.4Q38.15-9.6 38.32-9.75 38.5-9.9 38.5-10.5L38.5-10.5 38.5-10.6Q38.5-10.7 38.47-10.73 38.45-10.75 38.45-10.85L38.45-10.85 38.85-13.85Q38.9-14.15 39.02-14.25 39.15-14.35 39.27-14.38 39.4-14.4 39.5-14.45 39.6-14.5 39.6-14.65L39.6-14.65Q39.85-15.85 40.12-17.38 40.4-18.9 40.6-20L40.6-20 40.45-20.25Q40.6-20.75 40.77-21.35 40.95-21.95 41.2-22.48 41.45-23 41.72-23.38 42-23.75 42.4-23.85L42.4-23.85 42.45-23.8 42.55-23.95Q42.7-23.95 42.8-24L42.8-24Q42.9-24 42.95-24.05L42.95-24.05Q43.6-24.05 44.2-23.75 44.8-23.45 45.27-23.08 45.75-22.7 46.02-22.35 46.3-22 46.3-21.85L46.3-21.85 46.35-21.75Q46.35-21.7 46.55-21.5L46.55-21.5 46.55-21.45Q46.35-20.95 46.15-20.55 45.95-20.15 45.7-19.68 45.45-19.2 45.15-18.6 44.85-18 44.5-17.05L44.5-17.05 44.5-17.3 44.2-16.9 44.2-16 44-16Q43.95-15.8 43.7-15.65 43.45-15.5 43.35-15.4L43.35-15.4 43.5-15.15Q43.55-15.15 43.55-15.1L43.55-15.1Q43.55-15.05 43.45-14.9 43.35-14.75 43.35-14.4L43.35-14.4 43.15-14.6Q43-14.6 42.85-14.45 42.7-14.3 42.7-13.95L42.7-13.95 42.8-13.95Q43.05-13.95 43.15-14.3L43.15-14.3Q43.35-14.2 43.35-14.1 43.35-14 43.45-13.95L43.45-13.95Q43.55-14 43.65-14.15 43.75-14.3 43.85-14.35L43.85-14.35 44-14.3Q44-14.15 43.82-14 43.65-13.85 43.65-13.65L43.65-13.65Q43.65-13.55 43.7-13.5L43.7-13.5Q43.6-13.55 43.6-13.55L43.6-13.55Q43.5-13.55 43.37-13.35 43.25-13.15 42.75-13.15L42.75-13.15Q42.8-13.35 42.87-13.48 42.95-13.6 43-13.7L43-13.7Q42.55-13.45 42.57-13.05 42.6-12.65 42.25-12.4L42.25-12.4 42.4-12Q42.4-11.85 42.12-11.5 41.85-11.15 41.8-11L41.8-11 41.9-11Q41.95-11 41.97-11.03 42-11.05 42.05-11.05L42.05-11.05Q42.2-10.8 42.35-10.8L42.35-10.8 42.4-10.8Q42.4-10.55 42.17-10.25 41.95-9.95 41.95-9.45L41.95-9.45Q42.1-9.45 42.2-9.43 42.3-9.4 42.4-9.4L42.4-9.4Q42.5-9.4 42.7-9.6L42.7-9.6Q42.75-9.55 42.8-9.55L42.8-9.55Q42.9-9.55 42.97-9.63 43.05-9.7 43.15-9.7L43.15-9.7ZM41.6-14.2L41.75-14.25 41.75-14.45Q41.75-14.6 41.7-14.6L41.7-14.6Q41.35-14.1 41.1-13.65L41.1-13.65Q40.85-13.25 40.67-12.85 40.5-12.45 40.5-12.2L40.5-12.2Q40.5-12 40.67-11.85 40.85-11.7 40.95-11.6L40.95-11.6 41.1-11.8Q41.1-12.1 41.02-12.15 40.95-12.2 40.7-12.5L40.7-12.5 41.15-12.7Q41.25-12.75 41.25-12.88 41.25-13 41.25-13.15 41.25-13.3 41.35-13.48 41.45-13.65 41.75-13.8L41.75-13.8Q41.7-13.9 41.67-13.95 41.65-14 41.6-14.2L41.6-14.2ZM42.7-9.9L42.7-9.9Q42.7-10.05 42.82-10.18 42.95-10.3 42.95-10.4L42.95-10.4Q42.95-10.45 42.92-10.48 42.9-10.5 42.9-10.55L42.9-10.55Q42.9-10.9 43.25-10.9L43.25-10.9Q43-10.35 43-10.1 43-9.85 42.85-9.85L42.85-9.85Q42.75-9.85 42.7-9.9ZM42.85-14.95L43.05-14.95Q43.05-15.1 42.9-15.2L42.9-15.2 42.85-14.95ZM42.35-11.4L42.35-11.15Q42.15-11.25 42.15-11.3L42.15-11.3Q42.15-11.35 42.17-11.35 42.2-11.35 42.2-11.4L42.2-11.4 42.35-11.4ZM42.3-14.65L42.15-14.75Q42.15-14.65 42.12-14.65 42.1-14.65 42.1-14.55L42.1-14.55 42.3-14.65ZM42.35-10.1L42.3-10.25Q42.3-10.35 42.4-10.35L42.4-10.35 42.35-10.1Z" opacity="1" transform="matrix(1,0,0,1,0,0)" fill="#ffffff" class="wordmark-text-0" data-fill-palette-color="quaternary" id="text-0"></path></svg></g></svg></g></svg></g></svg></g><g></g></svg></g><defs></defs></svg><rect width="353.8840690976059" height="247.19999999999996" fill="none" stroke="none" visibility="hidden"></rect></g></svg></g></svg>